<?xml version="1.0" encoding="utf-8"?>
<!-- Generator: Adobe Illustrator 21.0.0, SVG Export Plug-In . SVG Version: 6.00 Build 0)  -->
<svg version="1.1" xmlns="http://www.w3.org/2000/svg" xmlns:xlink="http://www.w3.org/1999/xlink" x="0px" y="0px"
	 viewBox="0 0 1000 1000" style="enable-background:new 0 0 1000 1000;" xml:space="preserve">
<style type="text/css">
	.st0{fill:none;stroke:#FFFFFF;stroke-width:30;stroke-linecap:round;stroke-linejoin:round;stroke-miterlimit:10;}
	.st1{fill:#FFFFFF;}
	.st2{display:none;}
	.st3{display:inline;}
	.st4{font-family:'MyriadPro-Regular';}
	.st5{font-size:12px;}
	.st6{fill:#0000FF;stroke:#0000FF;stroke-width:10;stroke-linecap:round;stroke-linejoin:round;stroke-miterlimit:10;}
	.st7{fill:#FF0000;stroke:#FF0000;stroke-width:10;stroke-linecap:round;stroke-linejoin:round;stroke-miterlimit:10;}
	.st8{display:inline;stroke:#000000;stroke-width:3;stroke-miterlimit:10;}
</style>
<g id="Layer_2">
	<path class="st0" d="M166.5,751.5c78.6,117.7,123.2,128.4,147,123c68-15.4,86.4-194.1,106-383c8.3-79.7,12.2-159.9,14-240
		c0.1-5.5,0.6-28.6,8.5-57.5c6.3-23.2,21.7-79.6,70-105c2.9-1.5,16.9-8.7,37-12c0,0,30.7-5,62,5c51.5,16.5,78.7,76.8,95,113
		c12.3,27.2,41,93.1,30.5,179.5c-5.4,44.3-12.8,112.5-63,136c-27.5,12.9-54.9,9.2-69,6c-31-11-62-22-93-33
		c9.2,22.1,25.1,53.1,52.5,84.5c23.4,26.8,47.5,45.1,66,57c9.8,4.8,22.7,12.4,36,24c17.4,15.2,27,29.9,29,33
		c2.4,3.7,10.8,17.2,17,37c9,28.9,8.3,55.1,6,73c-1.8,11.4-5.9,28.5-16,47c-4.4,8.1-13.3,24-30,38c-32.7,27.5-71.7,27.7-81.5,27.5
		c-11.1-0.3-48.9-1.7-79-30c-47.6-44.7-31.8-114.8-31-118"/>
</g>
<g id="Layer_4">
	<g>
		<g>
			<path class="st1" d="M646.7,448.5c-9.8,8.5-9,24.4,1.9,31.6c10,6.6,24.3,2.1,29.1-8.8c4.9-11.2-1.2-24.5-12.9-28.2
				c-12-3.8-24.9,4.1-27.1,16.4c-1.7,9.4,12.8,13.5,14.5,4c0.7-3.7,3-7,7.2-6.3c3.4,0.5,5.8,4,4.9,7.4c-2.2,7.9-14.7,1.3-7-5.3
				C664.7,452.8,654,442.2,646.7,448.5L646.7,448.5z"/>
		</g>
	</g>
	<g>
		<g>
			<path class="st1" d="M747.7,446.3c-6.7,7.6-8.5,18.8-2.2,27.3c5.8,7.8,17,10.7,25.6,5.9c8.4-4.7,12.2-16.2,7.6-24.8
				c-4.7-8.9-15.5-11.4-24.2-7.5c-3.7,1.7-4.6,7-2.7,10.3c2.2,3.8,6.6,4.4,10.3,2.7c3.8-1.7,5,5.4,0.8,6.6c-5.9,1.7-7.5-6.4-4.5-9.9
				C764.6,449.7,754.1,439.1,747.7,446.3L747.7,446.3z"/>
		</g>
	</g>
</g>
<g id="Layer_5" class="st2">
	<g class="st3">
		<g>
			<path d="M574,745.6c-14.3,7.8-24,23.4-24,39.8c0,17,10.2,33.4,25.6,40.7c14.7,7,34,7.8,49.1,1.6c16.1-6.5,25.8-21.8,24.7-39.3
				c-1.3-20.2-14.2-35.6-27.5-49.7c-2.9-3.1-9.1-4.2-12.7-1.6c-0.5,0.4-1.1,0.8-1.6,1.2c-4.6,3.3-6.8,9.2-3.8,14.4
				c2.7,4.6,9.7,7.1,14.4,3.8c0.5-0.4,1.1-0.8,1.6-1.2c-4.2-0.5-8.5-1.1-12.7-1.6c9.4,10,21.1,21.7,21.4,36.4
				c0.3,13.4-9.8,19.9-22.2,20.6c-13.2,0.8-27.9-2.6-33.4-16.1c-4.8-12,0.7-24.8,11.8-30.8C596.4,757.3,585.9,739.1,574,745.6
				L574,745.6z"/>
		</g>
	</g>
	<g class="st3">
		<g>
			<path d="M529.6,221c-9.5-4.9-13.3-14.7-12.8-25.2c0.5-10.6,8.5-21.2,17.6-27.4c10.3-7.2,23.7-12.9,36.5-11.4
				c12.1,1.4,17.7,10.9,17,22.4c-0.9,15.7-14,28.2-24.2,38.8c-9.4,9.7,5.4,24.6,14.8,14.8c14-14.4,27.7-30,30.1-50.8
				c2.2-19.3-7.7-37.9-26.6-44.2c-17.7-6-38.5,0.2-54,9.4c-15.1,9-28.7,23.8-31.5,41.7c-3.1,19.2,4.3,40.7,22.4,50
				c5,2.6,11.4,1.3,14.4-3.8C536.1,230.7,534.7,223.6,529.6,221L529.6,221z"/>
		</g>
	</g>
	<text transform="matrix(1 0 0 1 255.2222 944.333)" class="st3 st4 st5">Lorem ipsum</text>
</g>
<g id="Layer_6">
	<path class="st6" d="M595,868c38.7,0,70-31.3,70-70H525C525,836.7,556.3,868,595,868z"/>
	<path class="st7" d="M560.7,111.1c-36.8,4.1-63.7,34.5-60,67.9l133.4-14.9C630.4,130.8,597.6,107,560.7,111.1z"/>
</g>
<g id="Layer_3" class="st2">
	<circle class="st8" cx="692.5" cy="466.5" r="12"/>
	<circle class="st8" cx="741.5" cy="466.5" r="12"/>
</g>
</svg>
